# xmcd
#
# Track frame offsets:
#        150
#        16478
#        33976
#        52248
#        65852
#        86519
#        102667
#        118463
#        134056
#        152763
#        165152
#        184124
#        199485
#        211791
#        240476
#
# Disc length: 3939 seconds
#
# Revision: 0
# Processed by: cddbd v1.5.1PL2 Copyright (c) Steve Scherf et al.
# Submitted via: ExactAudioCopy v0.95b3
#
DISCID=df0f610f
DTITLE=Kaiser Chiefs - Employment
DYEAR=2005
DGENRE=Rock
TTITLE0=Everyday I Love Less and Less
TTITLE1=I Predict A Riot
TTITLE2=Modern Way
TTITLE3=Na Na Na Na Naa
TTITLE4=You Can Have It All
TTITLE5=Oh My God
TTITLE6=Born To Be A Dancer
TTITLE7=Saturday Night
TTITLE8=What Did I Ever Give You?
TTITLE9=Time Honoured Tradition
TTITLE10=Caroline, Yes
TTITLE11=Team-mate
TTITLE12=Take My Temperature
TTITLE13=Wrecking Ball
TTITLE14=I Predict A Riot(Video)
EXTD=
EXTT0=
EXTT1=
EXTT2=
EXTT3=
EXTT4=
EXTT5=
EXTT6=
EXTT7=
EXTT8=
EXTT9=
EXTT10=
EXTT11=
EXTT12=
EXTT13=
EXTT14=
PLAYORDER=
